<svg id="eZH4cfPkREC1" xmlns="http://www.w3.org/2000/svg" xmlns:xlink="http://www.w3.org/1999/xlink" viewBox="0 0 180 250" shape-rendering="geometricPrecision" text-rendering="geometricPrecision" project-id="773ccda9650f4831b6f9f9871cea059a" export-id="9b40500320c7452cb67859d6a47d0f4a" cached="false"><g transform="translate(5.591401 13.119396)"><g transform="matrix(1.1034 0 0 1.1034-26.8521-49.5262)"><g><path d="M60.63355,99.87013c-2.49575,12.47873-8.474878,24.582301-4.235295,38.823522c10.674942,35.858294,71.928901,40.634746,90.352941,8.470588C178.374048,91.957978,85.760783,47.615857,60.63355,99.87013" paint-order="stroke fill markers" fill="none" fill-rule="evenodd" stroke="#464646" stroke-width="3"/></g><g><path d="M85.92399,166.76902c-1.43881,7.19406-11.55157,59.94398-9.38052,62.98346c1.32922,1.86091,7.46051.44669,9.38052.44669c11.43215,0,.10078-7.74494,3.57352-12.95405.81974-1.22961,16.5189-1.28966,17.86765-.44669c3.86379,2.41487-.76869,10.89894,2.23346,13.40074.89308.74424,10.8992-.29774,11.61397-.89338c1.25824-1.04854.29299-3.30215,0-4.9136-2.74382-15.09102-3.82364-29.74927-5.3603-45.11581-.36565-3.65648-1.49987-7.49935-2.23346-11.16728" paint-order="stroke fill markers" fill="none" fill-rule="evenodd" stroke="#464646" stroke-width="3"/></g><g><path d="M138.006261,122.413982c-5.0454,0-6.065671,13.893448.955329,13.191348c7.50806-.75081,6.619101-14.706239-.955329-13.191348" fill="#464646" stroke-width="0"/></g><g><path d="M91.291323,123.05298c-6.22164,0-3.184613,17.38833,4.066127,13.36013c4.68413-2.6023,5.05306-10.60665.09681-13.36013-1.52967-.84982-5.70353-.55349-6.38963,1.16175" fill="#464646" stroke-width="0"/></g></g></g><g transform="translate(-129.431839 32.805384)"><path d="M15.29413,44.11765c-4.22146.84429-10.50337,9.71883-6.35295,15.52941C18.35345,72.82424,145.88236,49.5355,145.88236,29.29412c0-9.68545-26.56856-7.05882-33.17647-7.05882-32.8104,0-69.10874,4.90054-97.41176,21.88235" transform="translate(140.700187-10.774796)" fill="#be2876" stroke-width="0.6"/><path d="M43.5711,47.695213c9.41433,0,57.21978-7.258273,65.85853-10.713773c4.0872-1.63488,1.66041-6.926494,0-11.492634-7.00766-19.27107-49.894126-10.25105-61.609606,0-7.34841,6.42986-2.482354,13.373537-4.248924,22.206407" transform="translate(133.720727-19.805016)" fill="#db2183" stroke-width="0.6"/></g><path d="M72.40907,151.1902c0,13.45505-13.4105,54.95208-10.01932,65.12561.60918,1.82753,2.27136,2.65852,4.00773,3.0058c17.94966,3.58993,2.9899-15.52995,16.53188-15.52995c3.52277,0,9.21094-1.10441,12.52416,0c1.04684.34895,10.92198,27.02505,18.03478,11.02126c2.60558-5.86254-7.71575-53.60777-9.51836-62.62078" fill="none" stroke-width="0.6"/><path d="M71.30554,149.289641c-4.136207,21.133349-5.323943,30.075382-7.750906,44.093838-.431173,2.490509-2.562155,15.669721-1.409181,15.669721.961368,0,45.218337,1.08201,48.825067,0c1.87337-.56201,2.946547.832553,2.919429-.454279-.303933-14.42257-3.644709-29.188941-5.150677-45.586341-.189854-2.067187-1.004559-12.626027-2.665766-12.343057-2.995114.503996-2.569863,3.537439-6.537906,9.333867-2.88349,4.212137-10.596505,3.46214-15.578865,3.00919-5.26938-.47903-8.911196-8.980698-8.911195-13.722939" transform="translate(-.171431 1.301797)" fill="#f3db3d" stroke-width="0.6"/><path d="M88.58273,99.36991c-5.33074-3.19844-11.30818-4.97299-15.99554-.28563" transform="translate(0-2.999999)" fill="none" stroke="#464646" stroke-width="1.2"/><path d="M124.00141,99.08428c4.66359-2.79815,11.16516-5.68728,15.42427-1.42817" transform="translate(0-3)" fill="none" stroke="#464646" stroke-width="1.2"/><path d="M100.55913,131.04081c6.527668,2.990336,13.83103,1.715924,18.76276-3.21647" fill="none" stroke="#464646" stroke-width="1.2"/><path d="M74.10116,149.19389c-1.65449,1.24087.13676,4.29485,2.12227,2.97118c2.27294-1.51529-.86084-5.0264-2.26375-2.68821" fill="#f3bf3d" stroke-width="0.6"/><path d="M74.10116,149.19389c-1.65449,1.24087.13676,4.29485,2.12227,2.97118c2.27294-1.51529-.86084-5.0264-2.26375-2.68821" transform="translate(2.481436 2.894434)" fill="#f3bf3d" stroke-width="0.6"/><path d="M74.10116,149.19389c-1.65449,1.24087.13676,4.29485,2.12227,2.97118c2.27294-1.51529-.86084-5.0264-2.26375-2.68821" transform="translate(4.817694 5.667271)" fill="#f3bf3d" stroke-width="0.6"/><path d="M74.10116,149.19389c-1.65449,1.24087.13676,4.29485,2.12227,2.97118c2.27294-1.51529-.86084-5.0264-2.26375-2.68821" transform="translate(7.904827 7.893226)" fill="#f3bf3d" stroke-width="0.6"/><path d="M74.10116,149.19389c-1.65449,1.24087.13676,4.29485,2.12227,2.97118c2.27294-1.51529-.86084-5.0264-2.26375-2.68821" transform="translate(11.427418 9.158688)" fill="#f3bf3d" stroke-width="0.6"/><path d="M74.10116,149.19389c-1.65449,1.24087.13676,4.29485,2.12227,2.97118c2.27294-1.51529-.86084-5.0264-2.26375-2.68821" transform="translate(15.099997 9.208684)" fill="#f3bf3d" stroke-width="0.6"/><path d="M74.10116,149.19389c-1.65449,1.24087.13676,4.29485,2.12227,2.97118c2.27294-1.51529-.86084-5.0264-2.26375-2.68821" transform="translate(18.472596 8.393195)" fill="#f3bf3d" stroke-width="0.6"/><path d="M74.10116,149.19389c-1.65449,1.24087.13676,4.29485,2.12227,2.97118c2.27294-1.51529-.86084-5.0264-2.26375-2.68821" transform="translate(21.44522 6.497496)" fill="#f3bf3d" stroke-width="0.6"/><path d="M74.10116,149.19389c-1.65449,1.24087.13676,4.29485,2.12227,2.97118c2.27294-1.51529-.86084-5.0264-2.26375-2.68821" transform="translate(24.336145 4.341361)" fill="#f3bf3d" stroke-width="0.6"/><path d="M74.10116,149.19389c-1.65449,1.24087.13676,4.29485,2.12227,2.97118c2.27294-1.51529-.86084-5.0264-2.26375-2.68821" transform="translate(27.108782 1.990464)" fill="#f3bf3d" stroke-width="0.6"/></svg>
