<svg id="ekYG9xuXeJT1" xmlns="http://www.w3.org/2000/svg" xmlns:xlink="http://www.w3.org/1999/xlink" viewBox="0 0 300 300" shape-rendering="geometricPrecision" text-rendering="geometricPrecision" project-id="773ccda9650f4831b6f9f9871cea059a" export-id="47dd8ccf68b443af9a91fb8315f902d2" cached="false"><g transform="translate(5.591401 13.119396)"><g transform="matrix(1.1034 0 0 1.1034-26.8521-49.5262)"><g><path d="M116.82353,127.05883c-2.49575,12.47873-8.474878,24.582301-4.235295,38.823522c10.674942,35.858294,71.928901,40.634746,90.352941,8.470588c31.622852-55.206262-60.990413-99.548383-86.117646-47.29411" paint-order="stroke fill markers" fill="none" fill-rule="evenodd" stroke="#464646" stroke-width="3"/></g><g><path d="M142.11397,193.95772c-1.43881,7.19406-11.55157,59.94398-9.38052,62.98346c1.32922,1.86091,7.46051.44669,9.38052.44669c11.43215,0,.10078-7.74494,3.57352-12.95405.81974-1.22961,16.5189-1.28966,17.86765-.44669c3.86379,2.41487-.76869,10.89894,2.23346,13.40074.89308.74424,10.8992-.29774,11.61397-.89338c1.25824-1.04854.29299-3.30215,0-4.9136-2.74382-15.09102-3.82364-29.74927-5.3603-45.11581-.36565-3.65648-1.49987-7.49935-2.23346-11.16728" paint-order="stroke fill markers" fill="none" fill-rule="evenodd" stroke="#464646" stroke-width="3"/></g><g><path d="M194.196241,149.602682c-5.0454,0-6.065671,13.893448.955329,13.191348c7.50806-.75081,6.619101-14.706239-.955329-13.191348" fill="#464646" stroke-width="0"/></g><g><path d="M147.481303,150.24168c-6.22164,0-3.184613,17.38833,4.066127,13.36013c4.68413-2.6023,5.05306-10.60665.09681-13.36013-1.52967-.84982-5.70353-.55349-6.38963,1.16175" fill="#464646" stroke-width="0"/></g></g></g><path d="M158.6157,158.68321c7.37056,2.94822,18.47736,1.4452,24.14856-4.226" transform="translate(0 3.01857)" fill="none" stroke="#464646" stroke-width="1.5"/><path d="M132.13247,128.18858c2.16557-5.41392,7.47622-4.58445,12.60725-4.58445" transform="translate(0 0.000001)" fill="none" stroke="#464646" stroke-width="0.8"/><path d="M184.85368,126.46941c3.25-3.25,9.26036-4.65913,13.1803-1.71917" fill="none" stroke="#464646" stroke-width="0.8"/><path d="M88,45v0c0-7-1.5-14.6-4-20.5-.4-1-1.5-1.5-2.6-1.4C69.9,24.9,58.6,30,52,36.6c-.5.5-1.1.7-1.7.7-2.3,0-7.7,0-9.9,0-.7,0-1.3-.3-1.7-.7C32,30,20.8,25,9.2,23.1c-1.1-.1-2.2.4-2.6,1.4-2.5,5.9-4,13.5-4,20.5h.4c0,0,0,.2,0,.2s0-.2,0-.2h-.4c0,8,1.5,14.8,4,20.8.4,1,1.5,1.6,2.6,1.5C20.8,65.5,32,60.5,38.6,53.9c.5-.5,1.1-.7,1.7-.7c2.3,0,7.8,0,10,0c.7,0,1.3.3,1.7.7c6.6,6.6,17.8,11.6,29.4,13.4c1.1.2,2.1-.5,2.6-1.5c2.5-6,4-12.8,4-20.8v0c0,0,0,.2,0,.2s0-.2,0-.2Z" transform="matrix(.318426 0 0 0.228441 141.129946 169.38498)" fill="#aa0f0f"/></svg>
