<svg id="e81KbJZNRdv1" xmlns="http://www.w3.org/2000/svg" xmlns:xlink="http://www.w3.org/1999/xlink" viewBox="0 0 300 300" shape-rendering="geometricPrecision" text-rendering="geometricPrecision" project-id="773ccda9650f4831b6f9f9871cea059a" export-id="57bc24aab0c84e9e9d3f06ea404d6ba6" cached="false"><g transform="translate(5.591401 13.119396)"><g transform="matrix(1.1034 0 0 1.1034-26.8521-49.5262)"><g><path d="M116.82353,127.05883c-2.49575,12.47873-8.474878,24.582301-4.235295,38.823522c10.674942,35.858294,71.928901,40.634746,90.352941,8.470588c31.622852-55.206262-60.990413-99.548383-86.117646-47.29411" paint-order="stroke fill markers" fill="none" fill-rule="evenodd" stroke="#464646" stroke-width="3"/></g><g><path d="M142.11397,193.95772c-1.43881,7.19406-11.55157,59.94398-9.38052,62.98346c1.32922,1.86091,7.46051.44669,9.38052.44669c11.43215,0,.10078-7.74494,3.57352-12.95405.81974-1.22961,16.5189-1.28966,17.86765-.44669c3.86379,2.41487-.76869,10.89894,2.23346,13.40074.89308.74424,10.8992-.29774,11.61397-.89338c1.25824-1.04854.29299-3.30215,0-4.9136-2.74382-15.09102-3.82364-29.74927-5.3603-45.11581-.36565-3.65648-1.49987-7.49935-2.23346-11.16728" paint-order="stroke fill markers" fill="none" fill-rule="evenodd" stroke="#464646" stroke-width="3"/></g><g><path d="M194.196241,149.602682c-5.0454,0-6.065671,13.893448.955329,13.191348c7.50806-.75081,6.619101-14.706239-.955329-13.191348" fill="#464646" stroke-width="0"/></g><g><path d="M147.481303,150.24168c-6.22164,0-3.184613,17.38833,4.066127,13.36013c4.68413-2.6023,5.05306-10.60665.09681-13.36013-1.52967-.84982-5.70353-.55349-6.38963,1.16175" fill="#464646" stroke-width="0"/></g></g><path d="M77.29413,74.11765c-4.22146.84429-10.50337,9.71883-6.35295,15.52941c9.41227,13.17718,136.94118-10.11156,136.94118-30.35294c0-9.68545-26.56856-7.05882-33.17647-7.05882-32.8104,0-69.10874,4.90054-97.41176,21.88235" transform="translate(5.67693 3.57756)" fill="#2e2e2e" stroke-width="0.6"/><path d="M105.5711,77.695213c9.41433,0,57.21978-7.258273,65.85853-10.713773c4.0872-1.63488,1.66041-6.926494,0-11.492634-7.00766-19.27107-49.894126-10.25105-61.609606,0-7.34841,6.42986-2.482354,13.373537-4.248924,22.206407" transform="translate(-1.30253-5.45266)" fill="#303030" stroke-width="0.6"/></g></svg>
