<svg id="eBP9KuvokpI1" xmlns="http://www.w3.org/2000/svg" xmlns:xlink="http://www.w3.org/1999/xlink" viewBox="0 0 300 300" shape-rendering="geometricPrecision" text-rendering="geometricPrecision" project-id="773ccda9650f4831b6f9f9871cea059a" export-id="f2f63ba9414644d89973cb502b7ccc38" cached="true"><g transform="matrix(1.108584 0 0 1.108584-10.089063-1.743648)"><g transform="matrix(1.1034 0 0 1.1034-26.8521-49.5262)"><g><path d="M116.82353,127.05883c-4.235294,12.541893-8.474878,24.582301-4.235295,38.823522c10.674942,35.858294,71.928901,40.634746,90.352941,8.470588c31.622852-55.206262-60.990413-99.590369-86.117646-47.336096" paint-order="stroke fill markers" fill="none" fill-rule="evenodd" stroke="#464646" stroke-width="3"/></g><g><path d="M142.11397,193.95772c-1.43881,7.19406-11.55157,59.94398-9.38052,62.98346c1.32922,1.86091,7.46051.44669,9.38052.44669c11.43215,0,.10078-7.74494,3.57352-12.95405.81974-1.22961,16.5189-1.28966,17.86765-.44669c3.86379,2.41487-.76869,10.89894,2.23346,13.40074.89308.74424,10.8992-.29774,11.61397-.89338c1.25824-1.04854.29299-3.30215,0-4.9136-2.74382-15.09102-3.82364-29.74927-5.3603-45.11581-.36565-3.65648-1.49987-7.49935-2.23346-11.16728" paint-order="stroke fill markers" fill="none" fill-rule="evenodd" stroke="#464646" stroke-width="3"/></g><g><path d="M194.196241,149.602682c-5.0454,0-6.065671,13.893448.955329,13.191348c7.50806-.75081,6.619101-14.706239-.955329-13.191348" fill="#464646" stroke-width="0"/></g><g><path d="M147.481303,150.24168c-6.22164,0-3.184613,17.38833,4.066127,13.36013c4.68413-2.6023,5.05306-10.60665.09681-13.36013-1.52967-.84982-5.70353-.55349-6.38963,1.16175" fill="#464646" stroke-width="0"/></g></g></g><path d="M126.995756,119.336741c6.69394-1.33878,16.608094-1.159351,23.497804-1.159351" transform="matrix(.995318 0.09665-.09665 0.995318 11.788549-7.941983)" fill="none" stroke="#494949" stroke-width="1.4" stroke-linecap="round"/><path d="M190.14685,122.32772c5.36804,0,9.66574-2.99823,15.35241-1.8609" transform="translate(-.286897 2.899943)" fill="none" stroke="#494949" stroke-width="1.5" stroke-linecap="round"/><path d="M88,45v0c0-7-1.5-14.6-4-20.5-.4-1-1.5-1.5-2.6-1.4C69.9,24.9,58.6,30,52,36.6c-.5.5-1.1.7-1.7.7-2.3,0-7.7,0-9.9,0-.7,0-1.3-.3-1.7-.7C32,30,20.8,25,9.2,23.1c-1.1-.1-2.2.4-2.6,1.4-2.5,5.9-4,13.5-4,20.5h.4c0,0,0,.2,0,.2s0-.2,0-.2h-.4c0,8,1.5,14.8,4,20.8.4,1,1.5,1.6,2.6,1.5C20.8,65.5,32,60.5,38.6,53.9c.5-.5,1.1-.7,1.7-.7c2.3,0,7.8,0,10,0c.7,0,1.3.3,1.7.7c6.6,6.6,17.8,11.6,29.4,13.4c1.1.2,2.1-.5,2.6-1.5c2.5-6,4-12.8,4-20.8v0c0,0,0,.2,0,.2s0-.2,0-.2Z" transform="matrix(.354678 0 0 0.287084 138.198122 169.960037)" fill="#a83737"/><path d="M152.527113,158.33225c10.410552,9.202915,29.121187,5.5902,38.438187,0" fill="none" stroke="#464646" stroke-width="1.5"/><rect width="1.92" height="1.28" rx="0" ry="0" transform="matrix(1.358353 0.533032-.365292 0.930893 101.548338 97.554753)" fill="#464646" stroke-width="0"/></svg>
