<svg id="eP8ZE7flHwz1" xmlns="http://www.w3.org/2000/svg" xmlns:xlink="http://www.w3.org/1999/xlink" viewBox="0 0 300 300" shape-rendering="geometricPrecision" text-rendering="geometricPrecision" project-id="1344207fdeb143cf8fdc1f7b617c31fd" export-id="170e55e400eb4c4ab739d893b85d93fc" cached="false"><path d="M56.269814,150.60566c0,2.71843-2.38085,20.45685.171336,20.45685c31.880181,0,69.101297,0,83.463946,0c16.998128,0,65.004067,12.982102,85.128858,0c1.542953,0,7.024232-8.661993,7.002241-10.204794-.045546-3.19534,1.833475-10.252056-.484415-10.252056-8.916632,0-76.031564-.60566-91.646684-.60566-11.33914,0-44.908254-5.43094-83.463946.60566" fill="#e7e7e7" stroke="#353535" stroke-width="0.6"/><path d="M129.9008,172.35411c0,26.64706,0,62.156843,0,87.456329c0,11.945534-18.16165,0-18.16165,15.838041c0,9.661868,53.094104,14.56391,57.948744,0c6.11479-18.34437-16.363495-6.18876-19.687895-9.51317-2.94301-2.94301-.93269-7.786978-.802448-11.946979.802449-25.630569.459071-51.734081,0-81.834221" transform="translate(.000001 0)" fill="#e7e7e7" stroke="#353535" stroke-width="0.6"/></svg>
